#!OML:ASF H:\ColoradoDance\Project 1\Capture day 1\Session 8\male.ASF
:FULLY-SPECIFIED
:DEGREES
73
upperback -2.964730 0.896177 0.366126
rfoot -21.285700 -1.718820
lradius 35.249001
lthumb 1.904270 59.836399
rradius 18.573000
lwrist -1.623940
rhand -26.019899 -5.783070
rhumerus -53.059299 -13.687100 -66.641098
lowerneck -6.004080 0.307586 5.138630
lhand -24.593399 29.865200
ltibia 40.944401
head 3.447720 0.082581 -3.020440
rwrist 18.608200
lfingers 7.125020
rtoes -0.101536
lowerback 0.791915 0.616955 3.602980
rfingers 7.125020
lclavicle 0.000000 -0.000000
upperneck 7.112000 0.412473 -6.297730
rfemur -10.135100 13.477200 26.204800
thorax -3.447230 0.337411 -1.673840
rclavicle 0.000000 -0.000000
rtibia 30.220900
lfoot -11.398200 -7.798120
lhumerus -38.994400 7.985020 64.571701
rthumb 0.526506 324.238007
root 3.898260 19.592600 -34.141602 505.691986 -85.116699 221.776001
ltoes 10.689500
lfemur -30.481300 -8.467710 -11.789900
74
upperback -3.507990 -1.380260 0.569202
rfoot -16.184000 1.622880
lradius 40.102200
lthumb -2.361750 62.324001
rradius 26.742701
lwrist -4.824720
rhand -33.097698 -5.513800
rhumerus -55.378300 -18.149500 -67.227600
lowerneck -5.251540 3.144770 7.624810
lhand -29.010401 32.357300
ltibia 46.453400
head 3.196120 1.940840 -3.456500
rwrist 10.021800
lfingers 7.125020
rtoes 1.345750
lowerback -0.378002 -1.030690 2.328060
rfingers 7.125020
lclavicle -0.000000 -0.000000
upperneck 6.778370 4.165570 -7.906550
rfemur -18.097300 12.489100 25.235701
thorax -3.434840 -0.772786 -0.679730
rclavicle -0.000000 -0.000000
rtibia 31.367001
lfoot -2.799360 -1.562530
lhumerus -38.912300 1.437060 74.149101
rthumb -6.308580 324.600006
root 5.730730 19.758200 -34.144501 525.492981 -81.393799 202.546005
ltoes 20.895000
lfemur -8.395590 2.979360 -15.807400
75
upperback -4.927170 -5.559940 1.502790
rfoot -10.302900 -5.373150
lradius 38.687199
lthumb -6.960650 85.523399
rradius 28.600300
lwrist -9.399120
rhand -32.062302 -2.124940
rhumerus -51.890800 -13.367900 -75.828201
lowerneck -6.375410 2.036550 6.940190
lhand -33.773201 55.657799
ltibia 29.625299
head 2.815640 1.145120 -3.274920
rwrist 9.905290
lfingers 7.125020
rtoes -0.194654
lowerback -0.547045 -4.103750 -1.242270
rfingers 7.125020
lclavicle 0.000000 0.000000
upperneck 5.355430 2.580160 -7.460850
rfemur -30.002701 7.860640 22.457701
thorax -4.513300 -2.731850 2.423610
rclavicle 0.000000 0.000000
rtibia 32.649601
lfoot 19.025999 16.260799
lhumerus -38.239101 -8.031070 85.514297
rthumb -5.308920 327.962006
root 7.905830 19.777100 -33.942902 399.682007 -85.094299 331.809998
ltoes 16.371300
lfemur 6.908900 4.230510 -13.547100
76
upperback -5.190250 -7.299460 1.746190
rfoot -3.449210 -19.875200
lradius 38.906300
lthumb -19.621500 -95.817703
rradius 32.063702
lwrist -6.812070
rhand -35.390301 -2.654780
rhumerus -47.561901 -11.597500 -73.667099
lowerneck -6.696610 -1.620310 3.248280
lhand -46.910801 66.787903
ltibia 4.512000
head 2.524970 -1.199010 -2.374440
rwrist 6.489880
lfingers 7.125020
rtoes -1.171790
lowerback 0.707348 -5.392850 -2.018420
rfingers 7.125020
lclavicle 0.000000 -0.000000
upperneck 4.498080 -2.167540 -5.255860
rfemur -39.459999 2.173850 13.746500
thorax -5.295770 -3.533340 3.291250
rclavicle 0.000000 -0.000000
rtibia 33.258801
lfoot -5.956870 34.544498
lhumerus -40.441799 -9.577500 84.354202
rthumb -8.521480 327.536987
root 10.924300 19.493900 -33.381500 374.781006 -65.421600 358.808990
ltoes -8.485660
lfemur 11.449900 -5.062490 -14.697600
77
upperback -3.395320 -4.113080 1.660530
rfoot -19.404100 -37.503101
lradius 40.598499
lthumb -25.461901 49.464001
rradius 29.438900
lwrist -3.564530
rhand -31.234100 -0.530200
rhumerus -54.852798 -9.534560 -65.219002
lowerneck -5.071180 0.549247 3.163390
lhand -52.995899 21.144899
ltibia 19.664200
head 3.897240 0.323025 -2.540530
rwrist 4.733800
lfingers 7.125020
rtoes 14.571600
lowerback 0.641525 -3.084750 -0.956290
rfingers 7.125020
lclavicle 0.000000 0.000000
upperneck 8.905290 0.990626 -6.000650
rfemur -27.957001 13.406100 -3.290980
thorax -3.663870 -2.003400 2.395940
rclavicle 0.000000 0.000000
rtibia 29.323900
lfoot -23.647900 21.341499
lhumerus -36.163200 -8.388500 81.596901
rthumb -4.509170 329.537994
root 14.177900 19.187201 -32.520401 368.187988 -34.917599 361.645996
ltoes -6.623770
lfemur -2.734720 -13.362800 -17.543400
78
upperback -2.366470 -1.950500 1.125120
rfoot -14.750500 -16.481400
lradius 27.495701
lthumb -2.867380 55.621399
rradius 25.018700
lwrist -15.024500
rhand -22.897900 4.773060
rhumerus -53.791302 -10.864000 -72.470802
lowerneck -3.881110 1.825910 4.777000
lhand -29.534000 25.660999
ltibia 23.549500
head 3.227180 1.195110 -2.332080
rwrist 14.131200
lfingers 7.125020
rtoes 4.609420
lowerback 1.776070 -1.465510 -0.720400
rfingers 7.125020
lclavicle -0.000000 0.000000
upperneck 7.394370 2.485420 -4.800520
rfemur -31.427401 0.247488 10.724200
thorax -3.364370 -0.940321 1.651070
rclavicle -0.000000 0.000000
rtibia 57.886200
lfoot -18.114700 0.183264
lhumerus -34.870201 5.801820 62.241199
rthumb 3.541660 334.822998
root 16.178801 19.458200 -32.191101 367.278015 -11.779300 359.535004
ltoes -3.847150
lfemur -9.091500 -13.150500 -16.929300
79
upperback -2.248940 -1.560000 0.109153
rfoot -14.918700 -11.046200
lradius 17.775700
lthumb 6.410410 53.039200
rradius 35.426601
lwrist -22.300100
rhand -34.378700 -2.511620
rhumerus -49.202000 -9.166680 -73.602798
lowerneck -3.923910 1.106730 4.716890
lhand -19.926901 23.156200
ltibia 24.288200
head 2.727790 0.698279 -1.809820
rwrist 6.257440
lfingers 7.125020
rtoes 3.715000
lowerback 2.271170 -1.123190 -1.596710
rfingers 7.125020
lclavicle 0.000000 0.000000
upperneck 6.168430 1.384290 -3.186610
rfemur -39.841801 1.772270 20.219200
thorax -3.540750 -0.734882 1.089160
rclavicle 0.000000 0.000000
rtibia 56.467999
lfoot -21.283600 5.726370
lhumerus -43.714802 13.534100 50.268200
rthumb -7.545110 327.643005
root 17.340599 19.375799 -31.336901 367.177002 -0.892395 359.509003
ltoes -12.503400
lfemur -7.924700 -10.714500 -19.336800
80
upperback -2.444780 -1.383610 -0.718136
rfoot -16.357000 -13.737000
lradius 19.754601
lthumb 14.474000 48.893200
rradius 31.603901
lwrist -19.636600
rhand -32.910400 2.618400
rhumerus -48.806000 -8.465920 -69.962303
lowerneck -5.697430 -0.740413 3.412610
lhand -11.567300 19.417999
ltibia 16.112900
head 3.361190 -0.545034 -1.446440
rwrist 7.452290
lfingers 7.125020
rtoes -10.962500
lowerback 1.317200 -0.973191 -2.191550
rfingers 7.125020
lclavicle -0.000000 -0.000000
upperneck 7.374640 -1.100290 -2.414660
rfemur -42.071899 9.143740 13.864900
thorax -3.216850 -0.644712 0.545509
rclavicle -0.000000 -0.000000
rtibia 31.492100
lfoot -18.672300 -0.587791
lhumerus -50.118698 13.344900 60.902699
rthumb -6.127700 332.726990
root 18.092400 19.222500 -29.540001 366.846985 6.559430 360.971008
ltoes -2.906700
lfemur 2.163230 -10.938200 -23.454000
